<mxfile host="65bd71144e">
    <diagram id="N1aljy49yp_ZXcq5WMEX" name="Page-1">
        <mxGraphModel dx="723" dy="804" grid="1" gridSize="10" guides="1" tooltips="1" connect="1" arrows="1" fold="1" page="1" pageScale="1" pageWidth="850" pageHeight="1100" math="0" shadow="0">
            <root>
                <mxCell id="0"/>
                <mxCell id="1" parent="0"/>
                <mxCell id="13" value="" style="group" vertex="1" connectable="0" parent="1">
                    <mxGeometry x="40" y="67" width="230" height="160" as="geometry"/>
                </mxCell>
                <mxCell id="2" value="" style="rounded=0;whiteSpace=wrap;html=1;strokeWidth=3;" vertex="1" parent="13">
                    <mxGeometry width="230" height="160" as="geometry"/>
                </mxCell>
                <mxCell id="5" value="&amp;lt;&amp;lt; Interface &amp;gt;&amp;gt;" style="text;strokeColor=none;align=center;fillColor=none;html=1;verticalAlign=middle;whiteSpace=wrap;rounded=0;" vertex="1" parent="13">
                    <mxGeometry x="50" width="130" height="30" as="geometry"/>
                </mxCell>
                <mxCell id="6" value="Navegador" style="text;strokeColor=none;align=center;fillColor=none;html=1;verticalAlign=middle;whiteSpace=wrap;rounded=0;fontStyle=1;fontSize=14;" vertex="1" parent="13">
                    <mxGeometry x="70" y="20" width="90" height="30" as="geometry"/>
                </mxCell>
                <mxCell id="7" value="" style="endArrow=none;html=1;fontSize=14;" edge="1" parent="13">
                    <mxGeometry width="50" height="50" relative="1" as="geometry">
                        <mxPoint x="15" y="54.709999999999994" as="sourcePoint"/>
                        <mxPoint x="215" y="54.709999999999994" as="targetPoint"/>
                    </mxGeometry>
                </mxCell>
                <mxCell id="9" value="+ adicionarNovaAba() : void" style="text;strokeColor=none;align=center;fillColor=none;html=1;verticalAlign=middle;whiteSpace=wrap;rounded=0;fontSize=14;" vertex="1" parent="13">
                    <mxGeometry x="15" y="70" width="200" height="30" as="geometry"/>
                </mxCell>
                <mxCell id="10" value="" style="endArrow=none;html=1;fontSize=14;" edge="1" parent="13">
                    <mxGeometry width="50" height="50" relative="1" as="geometry">
                        <mxPoint x="15" y="63.42999999999998" as="sourcePoint"/>
                        <mxPoint x="215" y="63.42999999999998" as="targetPoint"/>
                    </mxGeometry>
                </mxCell>
                <mxCell id="11" value="+ atualizarPagina() : void" style="text;strokeColor=none;align=center;fillColor=none;html=1;verticalAlign=middle;whiteSpace=wrap;rounded=0;fontSize=14;" vertex="1" parent="13">
                    <mxGeometry x="15" y="96" width="200" height="30" as="geometry"/>
                </mxCell>
                <mxCell id="12" value="+ exibirPagina() : void" style="text;strokeColor=none;align=center;fillColor=none;html=1;verticalAlign=middle;whiteSpace=wrap;rounded=0;fontSize=14;" vertex="1" parent="13">
                    <mxGeometry x="15" y="120" width="200" height="30" as="geometry"/>
                </mxCell>
                <mxCell id="14" value="" style="group" vertex="1" connectable="0" parent="1">
                    <mxGeometry x="311" y="67" width="230" height="160" as="geometry"/>
                </mxCell>
                <mxCell id="15" value="" style="rounded=0;whiteSpace=wrap;html=1;strokeWidth=3;" vertex="1" parent="14">
                    <mxGeometry width="230" height="160" as="geometry"/>
                </mxCell>
                <mxCell id="16" value="&amp;lt;&amp;lt; Interface &amp;gt;&amp;gt;" style="text;strokeColor=none;align=center;fillColor=none;html=1;verticalAlign=middle;whiteSpace=wrap;rounded=0;" vertex="1" parent="14">
                    <mxGeometry x="50" width="130" height="30" as="geometry"/>
                </mxCell>
                <mxCell id="17" value="Reprodutor" style="text;strokeColor=none;align=center;fillColor=none;html=1;verticalAlign=middle;whiteSpace=wrap;rounded=0;fontStyle=1;fontSize=14;" vertex="1" parent="14">
                    <mxGeometry x="70" y="20" width="90" height="30" as="geometry"/>
                </mxCell>
                <mxCell id="18" value="" style="endArrow=none;html=1;fontSize=14;" edge="1" parent="14">
                    <mxGeometry width="50" height="50" relative="1" as="geometry">
                        <mxPoint x="15" y="54.709999999999994" as="sourcePoint"/>
                        <mxPoint x="215" y="54.709999999999994" as="targetPoint"/>
                    </mxGeometry>
                </mxCell>
                <mxCell id="19" value="+ pausar() : void" style="text;strokeColor=none;align=center;fillColor=none;html=1;verticalAlign=middle;whiteSpace=wrap;rounded=0;fontSize=14;" vertex="1" parent="14">
                    <mxGeometry x="15" y="70" width="200" height="30" as="geometry"/>
                </mxCell>
                <mxCell id="20" value="" style="endArrow=none;html=1;fontSize=14;" edge="1" parent="14">
                    <mxGeometry width="50" height="50" relative="1" as="geometry">
                        <mxPoint x="15" y="63.42999999999998" as="sourcePoint"/>
                        <mxPoint x="215" y="63.42999999999998" as="targetPoint"/>
                    </mxGeometry>
                </mxCell>
                <mxCell id="21" value="+ tocar() : void" style="text;strokeColor=none;align=center;fillColor=none;html=1;verticalAlign=middle;whiteSpace=wrap;rounded=0;fontSize=14;" vertex="1" parent="14">
                    <mxGeometry x="15" y="96" width="200" height="30" as="geometry"/>
                </mxCell>
                <mxCell id="22" value="+ selecionarMusica() : void" style="text;strokeColor=none;align=center;fillColor=none;html=1;verticalAlign=middle;whiteSpace=wrap;rounded=0;fontSize=14;" vertex="1" parent="14">
                    <mxGeometry x="15" y="120" width="200" height="30" as="geometry"/>
                </mxCell>
                <mxCell id="23" value="" style="group" vertex="1" connectable="0" parent="1">
                    <mxGeometry x="580" y="67" width="230" height="160" as="geometry"/>
                </mxCell>
                <mxCell id="24" value="" style="rounded=0;whiteSpace=wrap;html=1;strokeWidth=3;" vertex="1" parent="23">
                    <mxGeometry width="230" height="160" as="geometry"/>
                </mxCell>
                <mxCell id="25" value="&amp;lt;&amp;lt; Interface &amp;gt;&amp;gt;" style="text;strokeColor=none;align=center;fillColor=none;html=1;verticalAlign=middle;whiteSpace=wrap;rounded=0;" vertex="1" parent="23">
                    <mxGeometry x="50" width="130" height="30" as="geometry"/>
                </mxCell>
                <mxCell id="26" value="Telefone" style="text;strokeColor=none;align=center;fillColor=none;html=1;verticalAlign=middle;whiteSpace=wrap;rounded=0;fontStyle=1;fontSize=14;" vertex="1" parent="23">
                    <mxGeometry x="70" y="20" width="90" height="30" as="geometry"/>
                </mxCell>
                <mxCell id="27" value="" style="endArrow=none;html=1;fontSize=14;" edge="1" parent="23">
                    <mxGeometry width="50" height="50" relative="1" as="geometry">
                        <mxPoint x="15" y="54.709999999999994" as="sourcePoint"/>
                        <mxPoint x="215" y="54.709999999999994" as="targetPoint"/>
                    </mxGeometry>
                </mxCell>
                <mxCell id="28" value="+ atender() : void" style="text;strokeColor=none;align=center;fillColor=none;html=1;verticalAlign=middle;whiteSpace=wrap;rounded=0;fontSize=14;" vertex="1" parent="23">
                    <mxGeometry x="15" y="70" width="200" height="30" as="geometry"/>
                </mxCell>
                <mxCell id="29" value="" style="endArrow=none;html=1;fontSize=14;" edge="1" parent="23">
                    <mxGeometry width="50" height="50" relative="1" as="geometry">
                        <mxPoint x="15" y="63.42999999999998" as="sourcePoint"/>
                        <mxPoint x="215" y="63.42999999999998" as="targetPoint"/>
                    </mxGeometry>
                </mxCell>
                <mxCell id="30" value="+ ligar() : void" style="text;strokeColor=none;align=center;fillColor=none;html=1;verticalAlign=middle;whiteSpace=wrap;rounded=0;fontSize=14;" vertex="1" parent="23">
                    <mxGeometry x="15" y="96" width="200" height="30" as="geometry"/>
                </mxCell>
                <mxCell id="31" value="+ iniciarCorreioVoz() : void" style="text;strokeColor=none;align=center;fillColor=none;html=1;verticalAlign=middle;whiteSpace=wrap;rounded=0;fontSize=14;" vertex="1" parent="23">
                    <mxGeometry x="15" y="120" width="200" height="30" as="geometry"/>
                </mxCell>
                <mxCell id="32" value="" style="rounded=0;whiteSpace=wrap;html=1;strokeWidth=3;fontSize=14;" vertex="1" parent="1">
                    <mxGeometry x="319" y="450" width="213" height="90" as="geometry"/>
                </mxCell>
                <mxCell id="34" value="IPhone" style="text;strokeColor=none;align=center;fillColor=none;html=1;verticalAlign=middle;whiteSpace=wrap;rounded=0;fontStyle=1;fontSize=24;" vertex="1" parent="1">
                    <mxGeometry x="380.5" y="462" width="90" height="30" as="geometry"/>
                </mxCell>
                <mxCell id="35" value="" style="endArrow=none;html=1;fontSize=14;" edge="1" parent="1">
                    <mxGeometry width="50" height="50" relative="1" as="geometry">
                        <mxPoint x="326" y="504.71000000000004" as="sourcePoint"/>
                        <mxPoint x="526" y="504.71000000000004" as="targetPoint"/>
                    </mxGeometry>
                </mxCell>
                <mxCell id="36" value="" style="endArrow=none;html=1;fontSize=14;" edge="1" parent="1">
                    <mxGeometry width="50" height="50" relative="1" as="geometry">
                        <mxPoint x="326" y="515.4299999999998" as="sourcePoint"/>
                        <mxPoint x="526" y="515.4299999999998" as="targetPoint"/>
                    </mxGeometry>
                </mxCell>
                <mxCell id="37" value="" style="endArrow=classic;html=1;fontSize=24;endSize=8;strokeWidth=3;" edge="1" parent="1">
                    <mxGeometry width="50" height="50" relative="1" as="geometry">
                        <mxPoint x="425.41" y="450" as="sourcePoint"/>
                        <mxPoint x="425" y="250" as="targetPoint"/>
                    </mxGeometry>
                </mxCell>
                <mxCell id="38" value="" style="endArrow=classic;html=1;fontSize=24;endSize=8;strokeWidth=3;" edge="1" parent="1">
                    <mxGeometry width="50" height="50" relative="1" as="geometry">
                        <mxPoint x="330.4100000000001" y="450" as="sourcePoint"/>
                        <mxPoint x="190" y="240" as="targetPoint"/>
                    </mxGeometry>
                </mxCell>
                <mxCell id="39" value="" style="endArrow=classic;html=1;fontSize=24;endSize=8;strokeWidth=3;" edge="1" parent="1">
                    <mxGeometry width="50" height="50" relative="1" as="geometry">
                        <mxPoint x="520.4100000000001" y="450" as="sourcePoint"/>
                        <mxPoint x="700" y="240" as="targetPoint"/>
                    </mxGeometry>
                </mxCell>
            </root>
        </mxGraphModel>
    </diagram>
</mxfile>